<svg width="183" height="30" viewBox="0 0 183 30" fill="none" xmlns="http://www.w3.org/2000/svg">
<path d="M43.368 23.144C42.12 23.144 40.92 22.944 39.768 22.544C38.632 22.128 37.752 21.6 37.128 20.96L37.824 19.592C38.416 20.168 39.208 20.656 40.2 21.056C41.208 21.44 42.264 21.632 43.368 21.632C44.424 21.632 45.28 21.504 45.936 21.248C46.608 20.976 47.096 20.616 47.4 20.168C47.72 19.72 47.88 19.224 47.88 18.68C47.88 18.024 47.688 17.496 47.304 17.096C46.936 16.696 46.448 16.384 45.84 16.16C45.232 15.92 44.56 15.712 43.824 15.536C43.088 15.36 42.352 15.176 41.616 14.984C40.88 14.776 40.2 14.504 39.576 14.168C38.968 13.832 38.472 13.392 38.088 12.848C37.72 12.288 37.536 11.56 37.536 10.664C37.536 9.832 37.752 9.072 38.184 8.384C38.632 7.68 39.312 7.12 40.224 6.704C41.136 6.272 42.304 6.056 43.728 6.056C44.672 6.056 45.608 6.192 46.536 6.464C47.464 6.72 48.264 7.08 48.936 7.544L48.336 8.96C47.616 8.48 46.848 8.128 46.032 7.904C45.232 7.68 44.456 7.568 43.704 7.568C42.696 7.568 41.864 7.704 41.208 7.976C40.552 8.248 40.064 8.616 39.744 9.08C39.44 9.528 39.288 10.04 39.288 10.616C39.288 11.272 39.472 11.8 39.84 12.2C40.224 12.6 40.72 12.912 41.328 13.136C41.952 13.36 42.632 13.56 43.368 13.736C44.104 13.912 44.832 14.104 45.552 14.312C46.288 14.52 46.96 14.792 47.568 15.128C48.192 15.448 48.688 15.88 49.056 16.424C49.44 16.968 49.632 17.68 49.632 18.56C49.632 19.376 49.408 20.136 48.96 20.84C48.512 21.528 47.824 22.088 46.896 22.52C45.984 22.936 44.808 23.144 43.368 23.144Z" fill="white"/>
<path d="M57.1581 23V16.76L57.5661 17.864L50.4381 6.2H52.3341L58.5981 16.448H57.5901L63.8541 6.2H65.6301L58.5021 17.864L58.9101 16.76V23H57.1581Z" fill="white"/>
<path d="M68.0329 23V6.2H69.4969L81.0889 20.792H80.3209V6.2H82.0729V23H80.6089L69.0409 8.408H69.8089V23H68.0329Z" fill="white"/>
<path d="M94.8523 23.144C93.5883 23.144 92.4203 22.936 91.3483 22.52C90.2763 22.088 89.3483 21.488 88.5643 20.72C87.7803 19.952 87.1643 19.048 86.7163 18.008C86.2843 16.968 86.0683 15.832 86.0683 14.6C86.0683 13.368 86.2843 12.232 86.7163 11.192C87.1643 10.152 87.7803 9.248 88.5643 8.48C89.3643 7.712 90.3003 7.12 91.3723 6.704C92.4443 6.272 93.6123 6.056 94.8763 6.056C96.0923 6.056 97.2363 6.264 98.3083 6.68C99.3803 7.08 100.284 7.688 101.02 8.504L99.8923 9.632C99.2043 8.928 98.4443 8.424 97.6123 8.12C96.7803 7.8 95.8843 7.64 94.9243 7.64C93.9163 7.64 92.9803 7.816 92.1163 8.168C91.2523 8.504 90.5003 8.992 89.8603 9.632C89.2203 10.256 88.7163 10.992 88.3483 11.84C87.9963 12.672 87.8203 13.592 87.8203 14.6C87.8203 15.608 87.9963 16.536 88.3483 17.384C88.7163 18.216 89.2203 18.952 89.8603 19.592C90.5003 20.216 91.2523 20.704 92.1163 21.056C92.9803 21.392 93.9163 21.56 94.9243 21.56C95.8843 21.56 96.7803 21.4 97.6123 21.08C98.4443 20.76 99.2043 20.248 99.8923 19.544L101.02 20.672C100.284 21.488 99.3803 22.104 98.3083 22.52C97.2363 22.936 96.0843 23.144 94.8523 23.144Z" fill="white"/>
<path d="M109.391 23.144C108.143 23.144 106.943 22.944 105.791 22.544C104.655 22.128 103.775 21.6 103.151 20.96L103.847 19.592C104.439 20.168 105.231 20.656 106.223 21.056C107.231 21.44 108.287 21.632 109.391 21.632C110.447 21.632 111.303 21.504 111.959 21.248C112.631 20.976 113.119 20.616 113.423 20.168C113.743 19.72 113.903 19.224 113.903 18.68C113.903 18.024 113.711 17.496 113.327 17.096C112.959 16.696 112.471 16.384 111.863 16.16C111.255 15.92 110.583 15.712 109.847 15.536C109.111 15.36 108.375 15.176 107.639 14.984C106.903 14.776 106.223 14.504 105.599 14.168C104.991 13.832 104.495 13.392 104.111 12.848C103.743 12.288 103.559 11.56 103.559 10.664C103.559 9.832 103.775 9.072 104.207 8.384C104.655 7.68 105.335 7.12 106.247 6.704C107.159 6.272 108.327 6.056 109.751 6.056C110.695 6.056 111.631 6.192 112.559 6.464C113.487 6.72 114.287 7.08 114.959 7.544L114.359 8.96C113.639 8.48 112.871 8.128 112.055 7.904C111.255 7.68 110.479 7.568 109.727 7.568C108.719 7.568 107.887 7.704 107.231 7.976C106.575 8.248 106.087 8.616 105.767 9.08C105.463 9.528 105.311 10.04 105.311 10.616C105.311 11.272 105.495 11.8 105.863 12.2C106.247 12.6 106.743 12.912 107.351 13.136C107.975 13.36 108.655 13.56 109.391 13.736C110.127 13.912 110.855 14.104 111.575 14.312C112.311 14.52 112.983 14.792 113.591 15.128C114.215 15.448 114.711 15.88 115.079 16.424C115.463 16.968 115.655 17.68 115.655 18.56C115.655 19.376 115.431 20.136 114.983 20.84C114.535 21.528 113.847 22.088 112.919 22.52C112.007 22.936 110.831 23.144 109.391 23.144Z" fill="white"/>
<path d="M126.821 23.144C125.557 23.144 124.389 22.936 123.317 22.52C122.245 22.088 121.317 21.488 120.533 20.72C119.749 19.952 119.133 19.048 118.685 18.008C118.253 16.968 118.037 15.832 118.037 14.6C118.037 13.368 118.253 12.232 118.685 11.192C119.133 10.152 119.749 9.248 120.533 8.48C121.333 7.712 122.269 7.12 123.341 6.704C124.413 6.272 125.581 6.056 126.845 6.056C128.061 6.056 129.205 6.264 130.277 6.68C131.349 7.08 132.253 7.688 132.989 8.504L131.861 9.632C131.173 8.928 130.413 8.424 129.581 8.12C128.749 7.8 127.853 7.64 126.893 7.64C125.885 7.64 124.949 7.816 124.085 8.168C123.221 8.504 122.469 8.992 121.829 9.632C121.189 10.256 120.685 10.992 120.317 11.84C119.965 12.672 119.789 13.592 119.789 14.6C119.789 15.608 119.965 16.536 120.317 17.384C120.685 18.216 121.189 18.952 121.829 19.592C122.469 20.216 123.221 20.704 124.085 21.056C124.949 21.392 125.885 21.56 126.893 21.56C127.853 21.56 128.749 21.4 129.581 21.08C130.413 20.76 131.173 20.248 131.861 19.544L132.989 20.672C132.253 21.488 131.349 22.104 130.277 22.52C129.205 22.936 128.053 23.144 126.821 23.144Z" fill="white"/>
<path d="M133.665 23L141.345 6.2H143.097L150.777 23H148.905L141.849 7.232H142.569L135.513 23H133.665ZM136.689 18.512L137.217 17.072H146.985L147.513 18.512H136.689Z" fill="white"/>
<path d="M153.556 23V6.2H159.844C161.268 6.2 162.492 6.432 163.516 6.896C164.54 7.344 165.324 8 165.868 8.864C166.428 9.712 166.708 10.744 166.708 11.96C166.708 13.144 166.428 14.168 165.868 15.032C165.324 15.88 164.54 16.536 163.516 17C162.492 17.464 161.268 17.696 159.844 17.696H154.54L155.332 16.856V23H153.556ZM155.332 17L154.54 16.136H159.796C161.476 16.136 162.748 15.776 163.612 15.056C164.492 14.32 164.932 13.288 164.932 11.96C164.932 10.616 164.492 9.576 163.612 8.84C162.748 8.104 161.476 7.736 159.796 7.736H154.54L155.332 6.896V17Z" fill="white"/>
<path d="M172.133 13.712H181.012V15.224H172.133V13.712ZM172.324 21.464H182.428V23H170.549V6.2H182.068V7.736H172.324V21.464Z" fill="white"/>
<path d="M0 15C0 6.71572 6.71572 0 15 0C23.2843 0 30 6.71572 30 15C30 23.2843 23.2843 30 15 30C6.71572 30 0 23.2843 0 15ZM15 1.875C8.38787 1.875 2.91772 6.76446 2.00792 13.125H11.7481L13.1611 8.17952C13.3034 7.68167 13.8222 7.39341 14.3201 7.53564C14.8179 7.67788 15.1061 8.19677 14.964 8.69462L11.214 21.8196C11.0717 22.3174 10.5528 22.6058 10.055 22.4634C9.55714 22.3213 9.26888 21.8023 9.41111 21.3045L11.2124 15H1.875C1.875 22.2487 7.75127 28.125 15 28.125C22.2487 28.125 28.125 22.2487 28.125 15H18.7873L16.8388 21.8196C16.6967 22.3176 16.1777 22.6058 15.6799 22.4634C15.1821 22.3213 14.8938 21.8023 15.036 21.3045L18.7862 8.17952C18.9283 7.68167 19.4473 7.39341 19.9451 7.53564C20.4429 7.67788 20.7311 8.19679 20.589 8.69462L19.3232 13.125H27.9921C27.0823 6.76446 21.6122 1.875 15 1.875Z" fill="white"/>
</svg>
