<svg xmlns="http://www.w3.org/2000/svg" version="1.1" xmlns:xlink="http://www.w3.org/1999/xlink" xmlns:svgjs="http://svgjs.dev/svgjs" width="1440" height="560" preserveAspectRatio="none" viewBox="0 0 1440 560"><g mask="url(&quot;#SvgjsMask1010&quot;)" fill="none"><path d="M-84.77 369.15L-84.77 369.15" stroke="rgba(236, 210, 255, 1)" stroke-width="1.5"></path><path d="M-84.77 369.15L-65.04 511.73" stroke="rgba(236, 210, 255, 1)" stroke-width="1.5"></path><path d="M-84.77 369.15L91.74 356.54" stroke="rgba(236, 210, 255, 1)" stroke-width="1.5"></path><path d="M-65.04 511.73L-65.04 511.73" stroke="rgba(236, 210, 255, 1)" stroke-width="1.5"></path><path d="M-65.04 511.73L51.93 556.13" stroke="rgba(236, 210, 255, 1)" stroke-width="1.5"></path><path d="M-65.04 511.73L91.74 356.54" stroke="rgba(236, 210, 255, 1)" stroke-width="1.5"></path><path d="M-65.04 511.73L83.2 692.74" stroke="rgba(236, 210, 255, 1)" stroke-width="1.5"></path><path d="M-65.04 511.73L224.43 680.88" stroke="rgba(236, 210, 255, 1)" stroke-width="1.5"></path><path d="M91.74 356.54L91.74 356.54" stroke="rgba(236, 210, 255, 1)" stroke-width="1.5"></path><path d="M91.74 356.54L226.39 338.92" stroke="rgba(236, 210, 255, 1)" stroke-width="1.5"></path><path d="M91.74 356.54L51.93 556.13" stroke="rgba(236, 210, 255, 1)" stroke-width="1.5"></path><path d="M91.74 356.54L388.21 355.19" stroke="rgba(236, 210, 255, 1)" stroke-width="1.5"></path><path d="M91.74 356.54L83.2 692.74" stroke="rgba(236, 210, 255, 1)" stroke-width="1.5"></path><path d="M51.93 556.13L51.93 556.13" stroke="rgba(236, 210, 255, 1)" stroke-width="1.5"></path><path d="M51.93 556.13L83.2 692.74" stroke="rgba(236, 210, 255, 1)" stroke-width="1.5"></path><path d="M51.93 556.13L224.43 680.88" stroke="rgba(236, 210, 255, 1)" stroke-width="1.5"></path><path d="M51.93 556.13L-84.77 369.15" stroke="rgba(236, 210, 255, 1)" stroke-width="1.5"></path><path d="M51.93 556.13L226.39 338.92" stroke="rgba(236, 210, 255, 1)" stroke-width="1.5"></path><path d="M83.2 692.74L83.2 692.74" stroke="rgba(236, 210, 255, 1)" stroke-width="1.5"></path><path d="M83.2 692.74L224.43 680.88" stroke="rgba(236, 210, 255, 1)" stroke-width="1.5"></path><path d="M226.39 338.92L226.39 338.92" stroke="rgba(236, 210, 255, 1)" stroke-width="1.5"></path><path d="M226.39 338.92L388.21 355.19" stroke="rgba(236, 210, 255, 1)" stroke-width="1.5"></path><path d="M224.43 680.88L224.43 680.88" stroke="rgba(236, 210, 255, 1)" stroke-width="1.5"></path><path d="M224.43 680.88L364.57 678.73" stroke="rgba(236, 210, 255, 1)" stroke-width="1.5"></path><path d="M388.21 355.19L388.21 355.19" stroke="rgba(236, 210, 255, 1)" stroke-width="1.5"></path><path d="M388.21 355.19L547.39 411.46" stroke="rgba(236, 210, 255, 1)" stroke-width="1.5"></path><path d="M388.21 355.19L367.02 553.81" stroke="rgba(236, 210, 255, 1)" stroke-width="1.5"></path><path d="M388.21 355.19L502.62 538.94" stroke="rgba(236, 210, 255, 1)" stroke-width="1.5"></path><path d="M388.21 355.19L642.31 362.98" stroke="rgba(236, 210, 255, 1)" stroke-width="1.5"></path><path d="M367.02 553.81L367.02 553.81" stroke="rgba(236, 210, 255, 1)" stroke-width="1.5"></path><path d="M367.02 553.81L364.57 678.73" stroke="rgba(236, 210, 255, 1)" stroke-width="1.5"></path><path d="M367.02 553.81L502.62 538.94" stroke="rgba(236, 210, 255, 1)" stroke-width="1.5"></path><path d="M367.02 553.81L507.24 649.84" stroke="rgba(236, 210, 255, 1)" stroke-width="1.5"></path><path d="M367.02 553.81L224.43 680.88" stroke="rgba(236, 210, 255, 1)" stroke-width="1.5"></path><path d="M364.57 678.73L364.57 678.73" stroke="rgba(236, 210, 255, 1)" stroke-width="1.5"></path><path d="M364.57 678.73L507.24 649.84" stroke="rgba(236, 210, 255, 1)" stroke-width="1.5"></path><path d="M364.57 678.73L502.62 538.94" stroke="rgba(236, 210, 255, 1)" stroke-width="1.5"></path><path d="M547.39 411.46L547.39 411.46" stroke="rgba(236, 210, 255, 1)" stroke-width="1.5"></path><path d="M547.39 411.46L642.31 362.98" stroke="rgba(236, 210, 255, 1)" stroke-width="1.5"></path><path d="M547.39 411.46L502.62 538.94" stroke="rgba(236, 210, 255, 1)" stroke-width="1.5"></path><path d="M547.39 411.46L672.69 503.8" stroke="rgba(236, 210, 255, 1)" stroke-width="1.5"></path><path d="M547.39 411.46L367.02 553.81" stroke="rgba(236, 210, 255, 1)" stroke-width="1.5"></path><path d="M547.39 411.46L507.24 649.84" stroke="rgba(236, 210, 255, 1)" stroke-width="1.5"></path><path d="M502.62 538.94L502.62 538.94" stroke="rgba(236, 210, 255, 1)" stroke-width="1.5"></path><path d="M502.62 538.94L507.24 649.84" stroke="rgba(236, 210, 255, 1)" stroke-width="1.5"></path><path d="M507.24 649.84L507.24 649.84" stroke="rgba(236, 210, 255, 1)" stroke-width="1.5"></path><path d="M507.24 649.84L639.15 654.13" stroke="rgba(236, 210, 255, 1)" stroke-width="1.5"></path><path d="M642.31 362.98L642.31 362.98" stroke="rgba(236, 210, 255, 1)" stroke-width="1.5"></path><path d="M642.31 362.98L672.69 503.8" stroke="rgba(236, 210, 255, 1)" stroke-width="1.5"></path><path d="M642.31 362.98L814.75 397.25" stroke="rgba(236, 210, 255, 1)" stroke-width="1.5"></path><path d="M642.31 362.98L502.62 538.94" stroke="rgba(236, 210, 255, 1)" stroke-width="1.5"></path><path d="M642.31 362.98L831.87 507.39" stroke="rgba(236, 210, 255, 1)" stroke-width="1.5"></path><path d="M672.69 503.8L672.69 503.8" stroke="rgba(236, 210, 255, 1)" stroke-width="1.5"></path><path d="M672.69 503.8L639.15 654.13" stroke="rgba(236, 210, 255, 1)" stroke-width="1.5"></path><path d="M672.69 503.8L831.87 507.39" stroke="rgba(236, 210, 255, 1)" stroke-width="1.5"></path><path d="M672.69 503.8L502.62 538.94" stroke="rgba(236, 210, 255, 1)" stroke-width="1.5"></path><path d="M639.15 654.13L639.15 654.13" stroke="rgba(236, 210, 255, 1)" stroke-width="1.5"></path><path d="M846.37 190.03L846.37 190.03" stroke="rgba(236, 210, 255, 1)" stroke-width="1.5"></path><path d="M846.37 190.03L966.4 208.78" stroke="rgba(236, 210, 255, 1)" stroke-width="1.5"></path><path d="M846.37 190.03L980.94 63.24" stroke="rgba(236, 210, 255, 1)" stroke-width="1.5"></path><path d="M814.75 397.25L814.75 397.25" stroke="rgba(236, 210, 255, 1)" stroke-width="1.5"></path><path d="M814.75 397.25L831.87 507.39" stroke="rgba(236, 210, 255, 1)" stroke-width="1.5"></path><path d="M814.75 397.25L940.2 362.62" stroke="rgba(236, 210, 255, 1)" stroke-width="1.5"></path><path d="M814.75 397.25L672.69 503.8" stroke="rgba(236, 210, 255, 1)" stroke-width="1.5"></path><path d="M814.75 397.25L846.37 190.03" stroke="rgba(236, 210, 255, 1)" stroke-width="1.5"></path><path d="M814.75 397.25L978.64 547.74" stroke="rgba(236, 210, 255, 1)" stroke-width="1.5"></path><path d="M831.87 507.39L831.87 507.39" stroke="rgba(236, 210, 255, 1)" stroke-width="1.5"></path><path d="M831.87 507.39L978.64 547.74" stroke="rgba(236, 210, 255, 1)" stroke-width="1.5"></path><path d="M831.87 507.39L816.12 675.32" stroke="rgba(236, 210, 255, 1)" stroke-width="1.5"></path><path d="M831.87 507.39L940.2 362.62" stroke="rgba(236, 210, 255, 1)" stroke-width="1.5"></path><path d="M816.12 675.32L816.12 675.32" stroke="rgba(236, 210, 255, 1)" stroke-width="1.5"></path><path d="M816.12 675.32L639.15 654.13" stroke="rgba(236, 210, 255, 1)" stroke-width="1.5"></path><path d="M939.28 -63.23L939.28 -63.23" stroke="rgba(236, 210, 255, 1)" stroke-width="1.5"></path><path d="M939.28 -63.23L980.94 63.24" stroke="rgba(236, 210, 255, 1)" stroke-width="1.5"></path><path d="M939.28 -63.23L1147.97 -65.98" stroke="rgba(236, 210, 255, 1)" stroke-width="1.5"></path><path d="M939.28 -63.23L1108 109.36" stroke="rgba(236, 210, 255, 1)" stroke-width="1.5"></path><path d="M939.28 -63.23L846.37 190.03" stroke="rgba(236, 210, 255, 1)" stroke-width="1.5"></path><path d="M980.94 63.24L980.94 63.24" stroke="rgba(236, 210, 255, 1)" stroke-width="1.5"></path><path d="M980.94 63.24L1108 109.36" stroke="rgba(236, 210, 255, 1)" stroke-width="1.5"></path><path d="M980.94 63.24L966.4 208.78" stroke="rgba(236, 210, 255, 1)" stroke-width="1.5"></path><path d="M980.94 63.24L1092.87 203.95" stroke="rgba(236, 210, 255, 1)" stroke-width="1.5"></path><path d="M966.4 208.78L966.4 208.78" stroke="rgba(236, 210, 255, 1)" stroke-width="1.5"></path><path d="M966.4 208.78L1092.87 203.95" stroke="rgba(236, 210, 255, 1)" stroke-width="1.5"></path><path d="M940.2 362.62L940.2 362.62" stroke="rgba(236, 210, 255, 1)" stroke-width="1.5"></path><path d="M940.2 362.62L966.4 208.78" stroke="rgba(236, 210, 255, 1)" stroke-width="1.5"></path><path d="M978.64 547.74L978.64 547.74" stroke="rgba(236, 210, 255, 1)" stroke-width="1.5"></path><path d="M978.64 547.74L1010.13 659.89" stroke="rgba(236, 210, 255, 1)" stroke-width="1.5"></path><path d="M978.64 547.74L1159.44 521.52" stroke="rgba(236, 210, 255, 1)" stroke-width="1.5"></path><path d="M978.64 547.74L940.2 362.62" stroke="rgba(236, 210, 255, 1)" stroke-width="1.5"></path><path d="M978.64 547.74L816.12 675.32" stroke="rgba(236, 210, 255, 1)" stroke-width="1.5"></path><path d="M1010.13 659.89L1010.13 659.89" stroke="rgba(236, 210, 255, 1)" stroke-width="1.5"></path><path d="M1010.13 659.89L1155.18 674.96" stroke="rgba(236, 210, 255, 1)" stroke-width="1.5"></path><path d="M1010.13 659.89L816.12 675.32" stroke="rgba(236, 210, 255, 1)" stroke-width="1.5"></path><path d="M1010.13 659.89L1159.44 521.52" stroke="rgba(236, 210, 255, 1)" stroke-width="1.5"></path><path d="M1010.13 659.89L831.87 507.39" stroke="rgba(236, 210, 255, 1)" stroke-width="1.5"></path><path d="M1147.97 -65.98L1147.97 -65.98" stroke="rgba(236, 210, 255, 1)" stroke-width="1.5"></path><path d="M1147.97 -65.98L1292.11 -103.82" stroke="rgba(236, 210, 255, 1)" stroke-width="1.5"></path><path d="M1147.97 -65.98L1108 109.36" stroke="rgba(236, 210, 255, 1)" stroke-width="1.5"></path><path d="M1147.97 -65.98L1260.23 107.77" stroke="rgba(236, 210, 255, 1)" stroke-width="1.5"></path><path d="M1108 109.36L1108 109.36" stroke="rgba(236, 210, 255, 1)" stroke-width="1.5"></path><path d="M1108 109.36L1092.87 203.95" stroke="rgba(236, 210, 255, 1)" stroke-width="1.5"></path><path d="M1108 109.36L1260.23 107.77" stroke="rgba(236, 210, 255, 1)" stroke-width="1.5"></path><path d="M1092.87 203.95L1092.87 203.95" stroke="rgba(236, 210, 255, 1)" stroke-width="1.5"></path><path d="M1092.87 203.95L1126.25 344.17" stroke="rgba(236, 210, 255, 1)" stroke-width="1.5"></path><path d="M1126.25 344.17L1126.25 344.17" stroke="rgba(236, 210, 255, 1)" stroke-width="1.5"></path><path d="M1126.25 344.17L1260 399.92" stroke="rgba(236, 210, 255, 1)" stroke-width="1.5"></path><path d="M1126.25 344.17L1274.82 247.66" stroke="rgba(236, 210, 255, 1)" stroke-width="1.5"></path><path d="M1126.25 344.17L1159.44 521.52" stroke="rgba(236, 210, 255, 1)" stroke-width="1.5"></path><path d="M1126.25 344.17L940.2 362.62" stroke="rgba(236, 210, 255, 1)" stroke-width="1.5"></path><path d="M1126.25 344.17L966.4 208.78" stroke="rgba(236, 210, 255, 1)" stroke-width="1.5"></path><path d="M1159.44 521.52L1159.44 521.52" stroke="rgba(236, 210, 255, 1)" stroke-width="1.5"></path><path d="M1159.44 521.52L1251.85 532.67" stroke="rgba(236, 210, 255, 1)" stroke-width="1.5"></path><path d="M1159.44 521.52L1155.18 674.96" stroke="rgba(236, 210, 255, 1)" stroke-width="1.5"></path><path d="M1159.44 521.52L1260 399.92" stroke="rgba(236, 210, 255, 1)" stroke-width="1.5"></path><path d="M1159.44 521.52L1244.96 662.1" stroke="rgba(236, 210, 255, 1)" stroke-width="1.5"></path><path d="M1155.18 674.96L1155.18 674.96" stroke="rgba(236, 210, 255, 1)" stroke-width="1.5"></path><path d="M1155.18 674.96L1244.96 662.1" stroke="rgba(236, 210, 255, 1)" stroke-width="1.5"></path><path d="M1155.18 674.96L1251.85 532.67" stroke="rgba(236, 210, 255, 1)" stroke-width="1.5"></path><path d="M1292.11 -103.82L1292.11 -103.82" stroke="rgba(236, 210, 255, 1)" stroke-width="1.5"></path><path d="M1292.11 -103.82L1453.57 -102.83" stroke="rgba(236, 210, 255, 1)" stroke-width="1.5"></path><path d="M1292.11 -103.82L1411.45 68.01" stroke="rgba(236, 210, 255, 1)" stroke-width="1.5"></path><path d="M1292.11 -103.82L1260.23 107.77" stroke="rgba(236, 210, 255, 1)" stroke-width="1.5"></path><path d="M1292.11 -103.82L1108 109.36" stroke="rgba(236, 210, 255, 1)" stroke-width="1.5"></path><path d="M1292.11 -103.82L1592.78 -96.75" stroke="rgba(236, 210, 255, 1)" stroke-width="1.5"></path><path d="M1260.23 107.77L1260.23 107.77" stroke="rgba(236, 210, 255, 1)" stroke-width="1.5"></path><path d="M1260.23 107.77L1274.82 247.66" stroke="rgba(236, 210, 255, 1)" stroke-width="1.5"></path><path d="M1260.23 107.77L1411.45 68.01" stroke="rgba(236, 210, 255, 1)" stroke-width="1.5"></path><path d="M1260.23 107.77L1092.87 203.95" stroke="rgba(236, 210, 255, 1)" stroke-width="1.5"></path><path d="M1260.23 107.77L1400.33 243.16" stroke="rgba(236, 210, 255, 1)" stroke-width="1.5"></path><path d="M1274.82 247.66L1274.82 247.66" stroke="rgba(236, 210, 255, 1)" stroke-width="1.5"></path><path d="M1274.82 247.66L1400.33 243.16" stroke="rgba(236, 210, 255, 1)" stroke-width="1.5"></path><path d="M1274.82 247.66L1260 399.92" stroke="rgba(236, 210, 255, 1)" stroke-width="1.5"></path><path d="M1274.82 247.66L1092.87 203.95" stroke="rgba(236, 210, 255, 1)" stroke-width="1.5"></path><path d="M1274.82 247.66L1108 109.36" stroke="rgba(236, 210, 255, 1)" stroke-width="1.5"></path><path d="M1260 399.92L1260 399.92" stroke="rgba(236, 210, 255, 1)" stroke-width="1.5"></path><path d="M1260 399.92L1251.85 532.67" stroke="rgba(236, 210, 255, 1)" stroke-width="1.5"></path><path d="M1251.85 532.67L1251.85 532.67" stroke="rgba(236, 210, 255, 1)" stroke-width="1.5"></path><path d="M1251.85 532.67L1244.96 662.1" stroke="rgba(236, 210, 255, 1)" stroke-width="1.5"></path><path d="M1244.96 662.1L1244.96 662.1" stroke="rgba(236, 210, 255, 1)" stroke-width="1.5"></path><path d="M1453.57 -102.83L1453.57 -102.83" stroke="rgba(236, 210, 255, 1)" stroke-width="1.5"></path><path d="M1453.57 -102.83L1592.78 -96.75" stroke="rgba(236, 210, 255, 1)" stroke-width="1.5"></path><path d="M1453.57 -102.83L1411.45 68.01" stroke="rgba(236, 210, 255, 1)" stroke-width="1.5"></path><path d="M1411.45 68.01L1411.45 68.01" stroke="rgba(236, 210, 255, 1)" stroke-width="1.5"></path><path d="M1411.45 68.01L1556.98 89.17" stroke="rgba(236, 210, 255, 1)" stroke-width="1.5"></path><path d="M1411.45 68.01L1400.33 243.16" stroke="rgba(236, 210, 255, 1)" stroke-width="1.5"></path><path d="M1411.45 68.01L1274.82 247.66" stroke="rgba(236, 210, 255, 1)" stroke-width="1.5"></path><path d="M1400.33 243.16L1400.33 243.16" stroke="rgba(236, 210, 255, 1)" stroke-width="1.5"></path><path d="M1400.33 243.16L1435.03 409.67" stroke="rgba(236, 210, 255, 1)" stroke-width="1.5"></path><path d="M1435.03 409.67L1435.03 409.67" stroke="rgba(236, 210, 255, 1)" stroke-width="1.5"></path><path d="M1435.03 409.67L1443.66 513.15" stroke="rgba(236, 210, 255, 1)" stroke-width="1.5"></path><path d="M1435.03 409.67L1568.92 494.61" stroke="rgba(236, 210, 255, 1)" stroke-width="1.5"></path><path d="M1435.03 409.67L1260 399.92" stroke="rgba(236, 210, 255, 1)" stroke-width="1.5"></path><path d="M1443.66 513.15L1443.66 513.15" stroke="rgba(236, 210, 255, 1)" stroke-width="1.5"></path><path d="M1443.66 513.15L1568.92 494.61" stroke="rgba(236, 210, 255, 1)" stroke-width="1.5"></path><path d="M1443.66 513.15L1541.4 666.68" stroke="rgba(236, 210, 255, 1)" stroke-width="1.5"></path><path d="M1443.66 513.15L1251.85 532.67" stroke="rgba(236, 210, 255, 1)" stroke-width="1.5"></path><path d="M1443.66 513.15L1260 399.92" stroke="rgba(236, 210, 255, 1)" stroke-width="1.5"></path><path d="M1592.78 -96.75L1592.78 -96.75" stroke="rgba(236, 210, 255, 1)" stroke-width="1.5"></path><path d="M1592.78 -96.75L1556.98 89.17" stroke="rgba(236, 210, 255, 1)" stroke-width="1.5"></path><path d="M1592.78 -96.75L1411.45 68.01" stroke="rgba(236, 210, 255, 1)" stroke-width="1.5"></path><path d="M1592.78 -96.75L1599.6 216.08" stroke="rgba(236, 210, 255, 1)" stroke-width="1.5"></path><path d="M1556.98 89.17L1556.98 89.17" stroke="rgba(236, 210, 255, 1)" stroke-width="1.5"></path><path d="M1556.98 89.17L1599.6 216.08" stroke="rgba(236, 210, 255, 1)" stroke-width="1.5"></path><path d="M1599.6 216.08L1599.6 216.08" stroke="rgba(236, 210, 255, 1)" stroke-width="1.5"></path><path d="M1599.6 216.08L1600.36 346.58" stroke="rgba(236, 210, 255, 1)" stroke-width="1.5"></path><path d="M1599.6 216.08L1400.33 243.16" stroke="rgba(236, 210, 255, 1)" stroke-width="1.5"></path><path d="M1599.6 216.08L1411.45 68.01" stroke="rgba(236, 210, 255, 1)" stroke-width="1.5"></path><path d="M1599.6 216.08L1435.03 409.67" stroke="rgba(236, 210, 255, 1)" stroke-width="1.5"></path><path d="M1600.36 346.58L1600.36 346.58" stroke="rgba(236, 210, 255, 1)" stroke-width="1.5"></path><path d="M1600.36 346.58L1568.92 494.61" stroke="rgba(236, 210, 255, 1)" stroke-width="1.5"></path><path d="M1600.36 346.58L1435.03 409.67" stroke="rgba(236, 210, 255, 1)" stroke-width="1.5"></path><path d="M1568.92 494.61L1568.92 494.61" stroke="rgba(236, 210, 255, 1)" stroke-width="1.5"></path><path d="M1568.92 494.61L1541.4 666.68" stroke="rgba(236, 210, 255, 1)" stroke-width="1.5"></path><path d="M1541.4 666.68L1541.4 666.68" stroke="rgba(236, 210, 255, 1)" stroke-width="1.5"></path><path d="M1541.4 666.68L1435.03 409.67" stroke="rgba(236, 210, 255, 1)" stroke-width="1.5"></path><circle r="5" cx="-84.77" cy="369.15" fill="rgba(236, 210, 255, 1)"></circle><circle r="5" cx="-65.04" cy="511.73" fill="rgba(236, 210, 255, 1)"></circle><circle r="5" cx="91.74" cy="356.54" fill="rgba(236, 210, 255, 1)"></circle><circle r="5" cx="51.93" cy="556.13" fill="rgba(236, 210, 255, 1)"></circle><circle r="5" cx="83.2" cy="692.74" fill="rgba(236, 210, 255, 1)"></circle><circle r="5" cx="226.39" cy="338.92" fill="rgba(236, 210, 255, 1)"></circle><circle r="5" cx="224.43" cy="680.88" fill="rgba(236, 210, 255, 1)"></circle><circle r="5" cx="388.21" cy="355.19" fill="rgba(236, 210, 255, 1)"></circle><circle r="5" cx="367.02" cy="553.81" fill="rgba(236, 210, 255, 1)"></circle><circle r="5" cx="364.57" cy="678.73" fill="rgba(236, 210, 255, 1)"></circle><circle r="5" cx="547.39" cy="411.46" fill="rgba(236, 210, 255, 1)"></circle><circle r="5" cx="502.62" cy="538.94" fill="rgba(236, 210, 255, 1)"></circle><circle r="5" cx="507.24" cy="649.84" fill="rgba(236, 210, 255, 1)"></circle><circle r="5" cx="642.31" cy="362.98" fill="rgba(236, 210, 255, 1)"></circle><circle r="5" cx="672.69" cy="503.8" fill="rgba(236, 210, 255, 1)"></circle><circle r="5" cx="639.15" cy="654.13" fill="rgba(236, 210, 255, 1)"></circle><circle r="5" cx="846.37" cy="190.03" fill="rgba(236, 210, 255, 1)"></circle><circle r="5" cx="814.75" cy="397.25" fill="rgba(236, 210, 255, 1)"></circle><circle r="5" cx="831.87" cy="507.39" fill="rgba(236, 210, 255, 1)"></circle><circle r="5" cx="816.12" cy="675.32" fill="rgba(236, 210, 255, 1)"></circle><circle r="5" cx="939.28" cy="-63.23" fill="rgba(236, 210, 255, 1)"></circle><circle r="5" cx="980.94" cy="63.24" fill="rgba(236, 210, 255, 1)"></circle><circle r="5" cx="966.4" cy="208.78" fill="rgba(236, 210, 255, 1)"></circle><circle r="5" cx="940.2" cy="362.62" fill="rgba(236, 210, 255, 1)"></circle><circle r="5" cx="978.64" cy="547.74" fill="rgba(236, 210, 255, 1)"></circle><circle r="5" cx="1010.13" cy="659.89" fill="rgba(236, 210, 255, 1)"></circle><circle r="5" cx="1147.97" cy="-65.98" fill="rgba(236, 210, 255, 1)"></circle><circle r="5" cx="1108" cy="109.36" fill="rgba(236, 210, 255, 1)"></circle><circle r="5" cx="1092.87" cy="203.95" fill="rgba(236, 210, 255, 1)"></circle><circle r="5" cx="1126.25" cy="344.17" fill="rgba(236, 210, 255, 1)"></circle><circle r="5" cx="1159.44" cy="521.52" fill="rgba(236, 210, 255, 1)"></circle><circle r="5" cx="1155.18" cy="674.96" fill="rgba(236, 210, 255, 1)"></circle><circle r="5" cx="1292.11" cy="-103.82" fill="rgba(236, 210, 255, 1)"></circle><circle r="5" cx="1260.23" cy="107.77" fill="rgba(236, 210, 255, 1)"></circle><circle r="5" cx="1274.82" cy="247.66" fill="rgba(236, 210, 255, 1)"></circle><circle r="5" cx="1260" cy="399.92" fill="rgba(236, 210, 255, 1)"></circle><circle r="5" cx="1251.85" cy="532.67" fill="rgba(236, 210, 255, 1)"></circle><circle r="5" cx="1244.96" cy="662.1" fill="rgba(236, 210, 255, 1)"></circle><circle r="5" cx="1453.57" cy="-102.83" fill="rgba(236, 210, 255, 1)"></circle><circle r="5" cx="1411.45" cy="68.01" fill="rgba(236, 210, 255, 1)"></circle><circle r="5" cx="1400.33" cy="243.16" fill="rgba(236, 210, 255, 1)"></circle><circle r="5" cx="1435.03" cy="409.67" fill="rgba(236, 210, 255, 1)"></circle><circle r="5" cx="1443.66" cy="513.15" fill="rgba(236, 210, 255, 1)"></circle><circle r="5" cx="1592.78" cy="-96.75" fill="rgba(236, 210, 255, 1)"></circle><circle r="5" cx="1556.98" cy="89.17" fill="rgba(236, 210, 255, 1)"></circle><circle r="5" cx="1599.6" cy="216.08" fill="rgba(236, 210, 255, 1)"></circle><circle r="5" cx="1600.36" cy="346.58" fill="rgba(236, 210, 255, 1)"></circle><circle r="5" cx="1568.92" cy="494.61" fill="rgba(236, 210, 255, 1)"></circle><circle r="5" cx="1541.4" cy="666.68" fill="rgba(236, 210, 255, 1)"></circle><path d="M353.29 676.04L353.29 676.04" stroke="hsl(281.79999999999995, 83.4%, 61.4%)" stroke-width="1.5"></path><path d="M353.29 676.04L230.84 668.43" stroke="hsl(281.79999999999995, 83.4%, 61.4%)" stroke-width="1.5"></path><path d="M353.29 676.04L395.16 553.94" stroke="hsl(281.79999999999995, 83.4%, 61.4%)" stroke-width="1.5"></path><path d="M353.29 676.04L501.44 709.31" stroke="hsl(281.79999999999995, 83.4%, 61.4%)" stroke-width="1.5"></path><path d="M353.29 676.04L192.34 495" stroke="hsl(281.79999999999995, 83.4%, 61.4%)" stroke-width="1.5"></path><path d="M353.29 676.04L69.05 668.94" stroke="hsl(281.79999999999995, 83.4%, 61.4%)" stroke-width="1.5"></path><path d="M353.29 676.04L542.37 411.37" stroke="hsl(281.79999999999995, 83.4%, 61.4%)" stroke-width="1.5"></path><path d="M542.37 411.37L542.37 411.37" stroke="hsl(281.79999999999995, 83.4%, 61.4%)" stroke-width="1.5"></path><path d="M542.37 411.37L668.14 488.62" stroke="hsl(281.79999999999995, 83.4%, 61.4%)" stroke-width="1.5"></path><path d="M542.37 411.37L395.16 553.94" stroke="hsl(281.79999999999995, 83.4%, 61.4%)" stroke-width="1.5"></path><path d="M542.37 411.37L796.62 409.47" stroke="hsl(281.79999999999995, 83.4%, 61.4%)" stroke-width="1.5"></path><path d="M542.37 411.37L679.56 655.93" stroke="hsl(281.79999999999995, 83.4%, 61.4%)" stroke-width="1.5"></path><path d="M679.56 655.93L679.56 655.93" stroke="hsl(281.79999999999995, 83.4%, 61.4%)" stroke-width="1.5"></path><path d="M679.56 655.93L801.13 641.24" stroke="hsl(281.79999999999995, 83.4%, 61.4%)" stroke-width="1.5"></path><path d="M679.56 655.93L817.77 562.31" stroke="hsl(281.79999999999995, 83.4%, 61.4%)" stroke-width="1.5"></path><path d="M679.56 655.93L668.14 488.62" stroke="hsl(281.79999999999995, 83.4%, 61.4%)" stroke-width="1.5"></path><path d="M679.56 655.93L501.44 709.31" stroke="hsl(281.79999999999995, 83.4%, 61.4%)" stroke-width="1.5"></path><path d="M679.56 655.93L796.62 409.47" stroke="hsl(281.79999999999995, 83.4%, 61.4%)" stroke-width="1.5"></path><path d="M969.03 498.19L969.03 498.19" stroke="hsl(281.79999999999995, 83.4%, 61.4%)" stroke-width="1.5"></path><path d="M969.03 498.19L976.51 407.23" stroke="hsl(281.79999999999995, 83.4%, 61.4%)" stroke-width="1.5"></path><path d="M969.03 498.19L1100.33 538.8" stroke="hsl(281.79999999999995, 83.4%, 61.4%)" stroke-width="1.5"></path><path d="M1443.87 661.02L1443.87 661.02" stroke="hsl(281.79999999999995, 83.4%, 61.4%)" stroke-width="1.5"></path><path d="M1443.87 661.02L1546.62 694.89" stroke="hsl(281.79999999999995, 83.4%, 61.4%)" stroke-width="1.5"></path><path d="M1443.87 661.02L1397.28 520.31" stroke="hsl(281.79999999999995, 83.4%, 61.4%)" stroke-width="1.5"></path><path d="M1597.16 -58.43L1597.16 -58.43" stroke="hsl(281.79999999999995, 83.4%, 61.4%)" stroke-width="1.5"></path><path d="M1597.16 -58.43L1557.92 107.67" stroke="hsl(281.79999999999995, 83.4%, 61.4%)" stroke-width="1.5"></path><path d="M1597.16 -58.43L1400.46 85.48" stroke="hsl(281.79999999999995, 83.4%, 61.4%)" stroke-width="1.5"></path><path d="M1597.16 -58.43L1550.56 188.05" stroke="hsl(281.79999999999995, 83.4%, 61.4%)" stroke-width="1.5"></path><path d="M1597.16 -58.43L1253.59 -63.07" stroke="hsl(281.79999999999995, 83.4%, 61.4%)" stroke-width="1.5"></path><path d="M1597.16 -58.43L1433.95 254.09" stroke="hsl(281.79999999999995, 83.4%, 61.4%)" stroke-width="1.5"></path><path d="M1569.88 373.88L1569.88 373.88" stroke="hsl(281.79999999999995, 83.4%, 61.4%)" stroke-width="1.5"></path><path d="M1569.88 373.88L1446.73 375.05" stroke="hsl(281.79999999999995, 83.4%, 61.4%)" stroke-width="1.5"></path><path d="M1569.88 373.88L1433.95 254.09" stroke="hsl(281.79999999999995, 83.4%, 61.4%)" stroke-width="1.5"></path><path d="M1569.88 373.88L1550.56 188.05" stroke="hsl(281.79999999999995, 83.4%, 61.4%)" stroke-width="1.5"></path><path d="M-100.09 642.9L-100.09 642.9" stroke="hsl(281.79999999999995, 83.4%, 61.4%)" stroke-width="1.5"></path><path d="M-100.09 642.9L69.05 668.94" stroke="hsl(281.79999999999995, 83.4%, 61.4%)" stroke-width="1.5"></path><path d="M-100.09 642.9L192.34 495" stroke="hsl(281.79999999999995, 83.4%, 61.4%)" stroke-width="1.5"></path><path d="M69.05 668.94L69.05 668.94" stroke="hsl(281.79999999999995, 83.4%, 61.4%)" stroke-width="1.5"></path><path d="M69.05 668.94L230.84 668.43" stroke="hsl(281.79999999999995, 83.4%, 61.4%)" stroke-width="1.5"></path><path d="M69.05 668.94L192.34 495" stroke="hsl(281.79999999999995, 83.4%, 61.4%)" stroke-width="1.5"></path><path d="M69.05 668.94L395.16 553.94" stroke="hsl(281.79999999999995, 83.4%, 61.4%)" stroke-width="1.5"></path><path d="M69.05 668.94L501.44 709.31" stroke="hsl(281.79999999999995, 83.4%, 61.4%)" stroke-width="1.5"></path><path d="M192.34 495L192.34 495" stroke="hsl(281.79999999999995, 83.4%, 61.4%)" stroke-width="1.5"></path><path d="M192.34 495L230.84 668.43" stroke="hsl(281.79999999999995, 83.4%, 61.4%)" stroke-width="1.5"></path><path d="M192.34 495L395.16 553.94" stroke="hsl(281.79999999999995, 83.4%, 61.4%)" stroke-width="1.5"></path><path d="M230.84 668.43L230.84 668.43" stroke="hsl(281.79999999999995, 83.4%, 61.4%)" stroke-width="1.5"></path><path d="M230.84 668.43L395.16 553.94" stroke="hsl(281.79999999999995, 83.4%, 61.4%)" stroke-width="1.5"></path><path d="M395.16 553.94L395.16 553.94" stroke="hsl(281.79999999999995, 83.4%, 61.4%)" stroke-width="1.5"></path><path d="M395.16 553.94L501.44 709.31" stroke="hsl(281.79999999999995, 83.4%, 61.4%)" stroke-width="1.5"></path><path d="M501.44 709.31L501.44 709.31" stroke="hsl(281.79999999999995, 83.4%, 61.4%)" stroke-width="1.5"></path><path d="M668.14 488.62L668.14 488.62" stroke="hsl(281.79999999999995, 83.4%, 61.4%)" stroke-width="1.5"></path><path d="M668.14 488.62L796.62 409.47" stroke="hsl(281.79999999999995, 83.4%, 61.4%)" stroke-width="1.5"></path><path d="M668.14 488.62L817.77 562.31" stroke="hsl(281.79999999999995, 83.4%, 61.4%)" stroke-width="1.5"></path><path d="M796.62 409.47L796.62 409.47" stroke="hsl(281.79999999999995, 83.4%, 61.4%)" stroke-width="1.5"></path><path d="M796.62 409.47L817.77 562.31" stroke="hsl(281.79999999999995, 83.4%, 61.4%)" stroke-width="1.5"></path><path d="M817.77 562.31L817.77 562.31" stroke="hsl(281.79999999999995, 83.4%, 61.4%)" stroke-width="1.5"></path><path d="M817.77 562.31L801.13 641.24" stroke="hsl(281.79999999999995, 83.4%, 61.4%)" stroke-width="1.5"></path><path d="M817.77 562.31L969.03 498.19" stroke="hsl(281.79999999999995, 83.4%, 61.4%)" stroke-width="1.5"></path><path d="M801.13 641.24L801.13 641.24" stroke="hsl(281.79999999999995, 83.4%, 61.4%)" stroke-width="1.5"></path><path d="M801.13 641.24L668.14 488.62" stroke="hsl(281.79999999999995, 83.4%, 61.4%)" stroke-width="1.5"></path><path d="M801.13 641.24L1010.56 708.8" stroke="hsl(281.79999999999995, 83.4%, 61.4%)" stroke-width="1.5"></path><path d="M801.13 641.24L969.03 498.19" stroke="hsl(281.79999999999995, 83.4%, 61.4%)" stroke-width="1.5"></path><path d="M976.51 407.23L976.51 407.23" stroke="hsl(281.79999999999995, 83.4%, 61.4%)" stroke-width="1.5"></path><path d="M976.51 407.23L1119.46 389.27" stroke="hsl(281.79999999999995, 83.4%, 61.4%)" stroke-width="1.5"></path><path d="M976.51 407.23L796.62 409.47" stroke="hsl(281.79999999999995, 83.4%, 61.4%)" stroke-width="1.5"></path><path d="M1010.56 708.8L1010.56 708.8" stroke="hsl(281.79999999999995, 83.4%, 61.4%)" stroke-width="1.5"></path><path d="M1010.56 708.8L1146.27 663.1" stroke="hsl(281.79999999999995, 83.4%, 61.4%)" stroke-width="1.5"></path><path d="M1010.56 708.8L1100.33 538.8" stroke="hsl(281.79999999999995, 83.4%, 61.4%)" stroke-width="1.5"></path><path d="M1010.56 708.8L969.03 498.19" stroke="hsl(281.79999999999995, 83.4%, 61.4%)" stroke-width="1.5"></path><path d="M1010.56 708.8L817.77 562.31" stroke="hsl(281.79999999999995, 83.4%, 61.4%)" stroke-width="1.5"></path><path d="M1010.56 708.8L1297.93 688.01" stroke="hsl(281.79999999999995, 83.4%, 61.4%)" stroke-width="1.5"></path><path d="M1143.05 58.16L1143.05 58.16" stroke="hsl(281.79999999999995, 83.4%, 61.4%)" stroke-width="1.5"></path><path d="M1143.05 58.16L1258.03 78.78" stroke="hsl(281.79999999999995, 83.4%, 61.4%)" stroke-width="1.5"></path><path d="M1143.05 58.16L1116.65 196.37" stroke="hsl(281.79999999999995, 83.4%, 61.4%)" stroke-width="1.5"></path><path d="M1143.05 58.16L1253.59 -63.07" stroke="hsl(281.79999999999995, 83.4%, 61.4%)" stroke-width="1.5"></path><path d="M1116.65 196.37L1116.65 196.37" stroke="hsl(281.79999999999995, 83.4%, 61.4%)" stroke-width="1.5"></path><path d="M1116.65 196.37L1261.59 188.55" stroke="hsl(281.79999999999995, 83.4%, 61.4%)" stroke-width="1.5"></path><path d="M1116.65 196.37L1258.03 78.78" stroke="hsl(281.79999999999995, 83.4%, 61.4%)" stroke-width="1.5"></path><path d="M1119.46 389.27L1119.46 389.27" stroke="hsl(281.79999999999995, 83.4%, 61.4%)" stroke-width="1.5"></path><path d="M1119.46 389.27L1268.78 383.68" stroke="hsl(281.79999999999995, 83.4%, 61.4%)" stroke-width="1.5"></path><path d="M1119.46 389.27L1100.33 538.8" stroke="hsl(281.79999999999995, 83.4%, 61.4%)" stroke-width="1.5"></path><path d="M1119.46 389.27L969.03 498.19" stroke="hsl(281.79999999999995, 83.4%, 61.4%)" stroke-width="1.5"></path><path d="M1119.46 389.27L1116.65 196.37" stroke="hsl(281.79999999999995, 83.4%, 61.4%)" stroke-width="1.5"></path><path d="M1100.33 538.8L1100.33 538.8" stroke="hsl(281.79999999999995, 83.4%, 61.4%)" stroke-width="1.5"></path><path d="M1100.33 538.8L1146.27 663.1" stroke="hsl(281.79999999999995, 83.4%, 61.4%)" stroke-width="1.5"></path><path d="M1100.33 538.8L1278.74 532" stroke="hsl(281.79999999999995, 83.4%, 61.4%)" stroke-width="1.5"></path><path d="M1100.33 538.8L976.51 407.23" stroke="hsl(281.79999999999995, 83.4%, 61.4%)" stroke-width="1.5"></path><path d="M1146.27 663.1L1146.27 663.1" stroke="hsl(281.79999999999995, 83.4%, 61.4%)" stroke-width="1.5"></path><path d="M1146.27 663.1L1297.93 688.01" stroke="hsl(281.79999999999995, 83.4%, 61.4%)" stroke-width="1.5"></path><path d="M1146.27 663.1L1278.74 532" stroke="hsl(281.79999999999995, 83.4%, 61.4%)" stroke-width="1.5"></path><path d="M1146.27 663.1L969.03 498.19" stroke="hsl(281.79999999999995, 83.4%, 61.4%)" stroke-width="1.5"></path><path d="M1146.27 663.1L1119.46 389.27" stroke="hsl(281.79999999999995, 83.4%, 61.4%)" stroke-width="1.5"></path><path d="M1253.59 -63.07L1253.59 -63.07" stroke="hsl(281.79999999999995, 83.4%, 61.4%)" stroke-width="1.5"></path><path d="M1253.59 -63.07L1258.03 78.78" stroke="hsl(281.79999999999995, 83.4%, 61.4%)" stroke-width="1.5"></path><path d="M1253.59 -63.07L1400.46 85.48" stroke="hsl(281.79999999999995, 83.4%, 61.4%)" stroke-width="1.5"></path><path d="M1253.59 -63.07L1261.59 188.55" stroke="hsl(281.79999999999995, 83.4%, 61.4%)" stroke-width="1.5"></path><path d="M1253.59 -63.07L1116.65 196.37" stroke="hsl(281.79999999999995, 83.4%, 61.4%)" stroke-width="1.5"></path><path d="M1258.03 78.78L1258.03 78.78" stroke="hsl(281.79999999999995, 83.4%, 61.4%)" stroke-width="1.5"></path><path d="M1258.03 78.78L1261.59 188.55" stroke="hsl(281.79999999999995, 83.4%, 61.4%)" stroke-width="1.5"></path><path d="M1258.03 78.78L1400.46 85.48" stroke="hsl(281.79999999999995, 83.4%, 61.4%)" stroke-width="1.5"></path><path d="M1261.59 188.55L1261.59 188.55" stroke="hsl(281.79999999999995, 83.4%, 61.4%)" stroke-width="1.5"></path><path d="M1268.78 383.68L1268.78 383.68" stroke="hsl(281.79999999999995, 83.4%, 61.4%)" stroke-width="1.5"></path><path d="M1268.78 383.68L1278.74 532" stroke="hsl(281.79999999999995, 83.4%, 61.4%)" stroke-width="1.5"></path><path d="M1268.78 383.68L1446.73 375.05" stroke="hsl(281.79999999999995, 83.4%, 61.4%)" stroke-width="1.5"></path><path d="M1278.74 532L1278.74 532" stroke="hsl(281.79999999999995, 83.4%, 61.4%)" stroke-width="1.5"></path><path d="M1278.74 532L1397.28 520.31" stroke="hsl(281.79999999999995, 83.4%, 61.4%)" stroke-width="1.5"></path><path d="M1278.74 532L1297.93 688.01" stroke="hsl(281.79999999999995, 83.4%, 61.4%)" stroke-width="1.5"></path><path d="M1297.93 688.01L1297.93 688.01" stroke="hsl(281.79999999999995, 83.4%, 61.4%)" stroke-width="1.5"></path><path d="M1297.93 688.01L1443.87 661.02" stroke="hsl(281.79999999999995, 83.4%, 61.4%)" stroke-width="1.5"></path><path d="M1400.46 85.48L1400.46 85.48" stroke="hsl(281.79999999999995, 83.4%, 61.4%)" stroke-width="1.5"></path><path d="M1400.46 85.48L1557.92 107.67" stroke="hsl(281.79999999999995, 83.4%, 61.4%)" stroke-width="1.5"></path><path d="M1400.46 85.48L1433.95 254.09" stroke="hsl(281.79999999999995, 83.4%, 61.4%)" stroke-width="1.5"></path><path d="M1400.46 85.48L1261.59 188.55" stroke="hsl(281.79999999999995, 83.4%, 61.4%)" stroke-width="1.5"></path><path d="M1433.95 254.09L1433.95 254.09" stroke="hsl(281.79999999999995, 83.4%, 61.4%)" stroke-width="1.5"></path><path d="M1433.95 254.09L1446.73 375.05" stroke="hsl(281.79999999999995, 83.4%, 61.4%)" stroke-width="1.5"></path><path d="M1433.95 254.09L1550.56 188.05" stroke="hsl(281.79999999999995, 83.4%, 61.4%)" stroke-width="1.5"></path><path d="M1433.95 254.09L1261.59 188.55" stroke="hsl(281.79999999999995, 83.4%, 61.4%)" stroke-width="1.5"></path><path d="M1433.95 254.09L1557.92 107.67" stroke="hsl(281.79999999999995, 83.4%, 61.4%)" stroke-width="1.5"></path><path d="M1446.73 375.05L1446.73 375.05" stroke="hsl(281.79999999999995, 83.4%, 61.4%)" stroke-width="1.5"></path><path d="M1397.28 520.31L1397.28 520.31" stroke="hsl(281.79999999999995, 83.4%, 61.4%)" stroke-width="1.5"></path><path d="M1557.92 107.67L1557.92 107.67" stroke="hsl(281.79999999999995, 83.4%, 61.4%)" stroke-width="1.5"></path><path d="M1557.92 107.67L1550.56 188.05" stroke="hsl(281.79999999999995, 83.4%, 61.4%)" stroke-width="1.5"></path><path d="M1550.56 188.05L1550.56 188.05" stroke="hsl(281.79999999999995, 83.4%, 61.4%)" stroke-width="1.5"></path><path d="M1550.56 188.05L1400.46 85.48" stroke="hsl(281.79999999999995, 83.4%, 61.4%)" stroke-width="1.5"></path><path d="M1546.62 694.89L1546.62 694.89" stroke="hsl(281.79999999999995, 83.4%, 61.4%)" stroke-width="1.5"></path><path d="M1546.62 694.89L1397.28 520.31" stroke="hsl(281.79999999999995, 83.4%, 61.4%)" stroke-width="1.5"></path><path d="M1546.62 694.89L1297.93 688.01" stroke="hsl(281.79999999999995, 83.4%, 61.4%)" stroke-width="1.5"></path><path d="M1546.62 694.89L1278.74 532" stroke="hsl(281.79999999999995, 83.4%, 61.4%)" stroke-width="1.5"></path><path d="M1546.62 694.89L1569.88 373.88" stroke="hsl(281.79999999999995, 83.4%, 61.4%)" stroke-width="1.5"></path><circle r="25" cx="353.29" cy="676.04" fill="url(&quot;#SvgjsRadialGradient1011&quot;)"></circle><circle r="25" cx="542.37" cy="411.37" fill="url(&quot;#SvgjsRadialGradient1011&quot;)"></circle><circle r="25" cx="679.56" cy="655.93" fill="url(&quot;#SvgjsRadialGradient1011&quot;)"></circle><circle r="25" cx="969.03" cy="498.19" fill="url(&quot;#SvgjsRadialGradient1011&quot;)"></circle><circle r="25" cx="1443.87" cy="661.02" fill="url(&quot;#SvgjsRadialGradient1011&quot;)"></circle><circle r="25" cx="1597.16" cy="-58.43" fill="url(&quot;#SvgjsRadialGradient1011&quot;)"></circle><circle r="25" cx="1569.88" cy="373.88" fill="url(&quot;#SvgjsRadialGradient1011&quot;)"></circle><circle r="5" cx="-100.09" cy="642.9" fill="#d08aee"></circle><circle r="5" cx="69.05" cy="668.94" fill="#d08aee"></circle><circle r="5" cx="192.34" cy="495" fill="#d08aee"></circle><circle r="5" cx="230.84" cy="668.43" fill="#d08aee"></circle><circle r="5" cx="395.16" cy="553.94" fill="#d08aee"></circle><circle r="5" cx="501.44" cy="709.31" fill="#d08aee"></circle><circle r="5" cx="668.14" cy="488.62" fill="#d08aee"></circle><circle r="5" cx="796.62" cy="409.47" fill="#d08aee"></circle><circle r="5" cx="817.77" cy="562.31" fill="#d08aee"></circle><circle r="5" cx="801.13" cy="641.24" fill="#d08aee"></circle><circle r="5" cx="976.51" cy="407.23" fill="#d08aee"></circle><circle r="5" cx="1010.56" cy="708.8" fill="#d08aee"></circle><circle r="5" cx="1143.05" cy="58.16" fill="#d08aee"></circle><circle r="5" cx="1116.65" cy="196.37" fill="#d08aee"></circle><circle r="5" cx="1119.46" cy="389.27" fill="#d08aee"></circle><circle r="5" cx="1100.33" cy="538.8" fill="#d08aee"></circle><circle r="5" cx="1146.27" cy="663.1" fill="#d08aee"></circle><circle r="5" cx="1253.59" cy="-63.07" fill="#d08aee"></circle><circle r="5" cx="1258.03" cy="78.78" fill="#d08aee"></circle><circle r="5" cx="1261.59" cy="188.55" fill="#d08aee"></circle><circle r="5" cx="1268.78" cy="383.68" fill="#d08aee"></circle><circle r="5" cx="1278.74" cy="532" fill="#d08aee"></circle><circle r="5" cx="1297.93" cy="688.01" fill="#d08aee"></circle><circle r="5" cx="1400.46" cy="85.48" fill="#d08aee"></circle><circle r="5" cx="1433.95" cy="254.09" fill="#d08aee"></circle><circle r="5" cx="1446.73" cy="375.05" fill="#d08aee"></circle><circle r="5" cx="1397.28" cy="520.31" fill="#d08aee"></circle><circle r="5" cx="1557.92" cy="107.67" fill="#d08aee"></circle><circle r="5" cx="1550.56" cy="188.05" fill="#d08aee"></circle><circle r="5" cx="1546.62" cy="694.89" fill="#d08aee"></circle></g><defs><mask id="SvgjsMask1010"><rect width="1440" height="560" fill="#ffffff"></rect></mask><radialGradient id="SvgjsRadialGradient1011"><stop stop-color="#ffffff" offset="0.1"></stop><stop stop-color="rgba(160, 20, 221, 1)" offset="0.2"></stop><stop stop-color="rgba(160, 20, 221, 0)" offset="1"></stop></radialGradient></defs></svg>